<?xml version="1.0" standalone="no"?>
<!DOCTYPE svg PUBLIC "-//W3C//DTD SVG 20010904//EN"
 "http://www.w3.org/TR/2001/REC-SVG-20010904/DTD/svg10.dtd">
<svg version="1.0" xmlns="http://www.w3.org/2000/svg"
 width="240.000000pt" height="240.000000pt" viewBox="0 0 240.000000 240.000000"
 preserveAspectRatio="xMidYMid meet">
<metadata>
Created by potrace 1.11, written by Peter Selinger 2001-2013
</metadata>
<g transform="translate(0.000000,240.000000) scale(0.100000,-0.100000)"
fill="#000000" stroke="none">
<path d="M1125 2380 c-11 -12 -16 -29 -13 -45 5 -25 5 -25 -68 -25 l-73 0 -11
-39 c-10 -39 -12 -40 -58 -43 -46 -3 -47 -4 -62 -45 l-14 -43 -185 0 c-215 0
-250 -10 -289 -79 l-22 -39 0 -954 0 -955 23 -33 c12 -18 35 -43 50 -54 28
-21 34 -21 830 -24 l802 -2 45 22 c33 17 51 35 68 68 l22 44 0 936 0 936 -22
44 c-42 81 -52 84 -281 90 l-201 5 -7 31 c-9 48 -17 54 -70 54 -47 0 -49 1
-49 28 0 42 -17 52 -91 52 -64 0 -66 1 -62 24 3 13 0 33 -6 45 -11 19 -20 21
-125 21 -100 0 -115 -2 -131 -20z m890 -433 c14 -21 15 -124 13 -886 -3 -841
-3 -863 -22 -877 -17 -12 -137 -14 -760 -14 -674 0 -741 1 -758 17 -17 15 -18
56 -18 884 0 775 2 869 16 883 14 14 97 16 764 16 l750 0 15 -23z"/>
<path d="M1280 1933 c0 -5 -20 -21 -44 -36 -56 -35 -175 -160 -201 -212 -18
-34 -26 -40 -58 -43 -37 -3 -37 -4 -37 -48 0 -40 2 -44 24 -44 22 0 24 -4 31
-87 4 -49 8 -108 9 -133 1 -44 1 -45 -37 -51 -33 -5 -40 -3 -55 20 -34 50 -66
137 -56 152 8 14 -6 49 -19 49 -14 0 -47 -49 -66 -97 -12 -30 -17 -33 -57 -33
l-44 0 0 -100 0 -100 29 0 c22 0 31 -6 36 -22 19 -72 30 -104 38 -115 7 -10
-3 -13 -47 -13 l-56 0 -1 -47 c-1 -27 -4 -38 -6 -25 -2 12 -11 22 -19 22 -11
0 -14 -23 -14 -121 0 -106 3 -124 20 -146 17 -22 20 -41 20 -119 l0 -94 86 0
c53 0 96 -5 112 -14 75 -38 130 -55 212 -65 41 -4 83 -12 93 -16 16 -7 18 -4
15 20 -2 22 -10 31 -31 36 -15 4 -41 19 -58 33 l-31 26 199 0 198 0 -45 -30
c-25 -16 -50 -30 -57 -30 -13 0 -38 -38 -31 -46 3 -2 42 1 89 6 104 13 152 29
230 77 23 13 57 23 90 25 l54 3 0 46 c0 25 5 52 11 60 5 8 24 42 42 77 31 61
32 66 32 192 0 72 -4 130 -9 130 -4 0 -21 -22 -38 -48 l-30 -48 -49 5 -49 6 4
75 c2 41 7 83 12 92 5 9 9 32 9 52 0 32 3 35 33 38 30 3 32 5 32 43 0 38 -2
40 -32 43 -24 2 -34 10 -43 35 -37 96 -71 150 -133 209 l-28 27 118 3 118 3 0
40 0 40 -257 3 -258 2 0 65 c0 35 5 67 10 70 6 3 10 15 10 26 0 19 2 26 33 87
24 47 22 52 -18 52 -19 0 -35 -3 -35 -7z m180 -453 c0 -57 -4 -74 -21 -91 -22
-22 -50 -19 -82 10 -22 18 -57 88 -57 111 0 9 -5 21 -12 28 -9 9 8 12 80 12
l92 0 0 -70z m-724 -187 c-3 -21 -6 -48 -6 -60 0 -13 -4 -23 -10 -23 -6 0 -10
27 -10 60 0 49 3 60 16 60 14 0 15 -7 10 -37z m666 -243 c9 -19 19 -54 23 -77
l7 -43 -49 0 -48 0 0 92 c0 51 -4 102 -9 113 -15 35 59 -48 76 -85z m-602 -88
c0 -10 4 -22 9 -27 4 -6 11 -25 14 -42 l7 -33 -60 0 -60 0 0 60 0 60 45 0 c37
0 45 -3 45 -18z m310 -17 c10 -12 10 -15 -4 -15 -9 0 -16 7 -16 15 0 8 2 15 4
15 2 0 9 -7 16 -15z m318 -120 c7 -14 12 -34 12 -43 0 -10 14 -34 31 -55 25
-31 37 -37 68 -37 20 0 43 6 50 13 14 13 -15 -69 -32 -90 -7 -10 -61 -13 -210
-13 -193 0 -200 1 -184 18 23 25 21 88 -2 120 -21 30 -61 100 -61 107 0 3 71
5 158 5 l159 0 11 -25z m-388 -220 c0 -3 -9 -5 -20 -5 -11 0 -20 7 -20 15 0
13 4 14 20 5 11 -6 20 -13 20 -15z m-295 -40 c32 -31 31 -35 -5 -35 -27 0 -30
3 -30 30 0 36 4 37 35 5z"/>
<path d="M670 1630 l0 -100 100 0 101 0 -3 98 -3 97 -97 3 -98 3 0 -101z m160
-5 l0 -65 -60 0 -60 0 0 65 0 65 60 0 60 0 0 -65z"/>
<path d="M857 343 c-4 -3 -7 -33 -7 -65 l0 -58 415 0 415 0 0 49 c0 88 38 81
-414 81 -222 0 -406 -3 -409 -7z"/>
</g>
</svg>
